<svg xmlns="http://www.w3.org/2000/svg" xmlns:xlink="http://www.w3.org/1999/xlink" width="500" zoomAndPan="magnify" viewBox="0 0 375 374.999991" height="500" preserveAspectRatio="xMidYMid meet" version="1.2"><defs><clipPath id="bb18cfb141"><path d="M 0 4.371094 L 375 4.371094 L 375 375 L 0 375 Z M 0 4.371094 "/></clipPath><clipPath id="7b1bc6a48b"><path d="M 187.5 4.371094 C 83.945312 4.371094 0 88.316406 0 191.871094 C 0 295.425781 83.945312 379.371094 187.5 379.371094 C 291.054688 379.371094 375 295.425781 375 191.871094 C 375 88.316406 291.054688 4.371094 187.5 4.371094 Z M 187.5 4.371094 "/></clipPath><linearGradient x1="0" gradientTransform="matrix(1.464844,0,0,1.464844,0.0000045,4.37161)" y1="128" x2="255.999988" gradientUnits="userSpaceOnUse" y2="128" id="c778fa9d61"><stop style="stop-color:#cdffd8;stop-opacity:1;" offset="0"/><stop style="stop-color:#cdffd8;stop-opacity:1;" offset="0.0078125"/><stop style="stop-color:#ccfed8;stop-opacity:1;" offset="0.015625"/><stop style="stop-color:#ccfed9;stop-opacity:1;" offset="0.0234375"/><stop style="stop-color:#cbfdd9;stop-opacity:1;" offset="0.03125"/><stop style="stop-color:#cbfdd9;stop-opacity:1;" offset="0.0390625"/><stop style="stop-color:#cbfcda;stop-opacity:1;" offset="0.046875"/><stop style="stop-color:#cafbda;stop-opacity:1;" offset="0.0546875"/><stop style="stop-color:#cafbda;stop-opacity:1;" offset="0.0625"/><stop style="stop-color:#c9fadb;stop-opacity:1;" offset="0.0703125"/><stop style="stop-color:#c9fadb;stop-opacity:1;" offset="0.078125"/><stop style="stop-color:#c8f9db;stop-opacity:1;" offset="0.0859375"/><stop style="stop-color:#c8f9db;stop-opacity:1;" offset="0.09375"/><stop style="stop-color:#c7f8dc;stop-opacity:1;" offset="0.101562"/><stop style="stop-color:#c7f8dc;stop-opacity:1;" offset="0.109375"/><stop style="stop-color:#c7f7dc;stop-opacity:1;" offset="0.117188"/><stop style="stop-color:#c6f7dd;stop-opacity:1;" offset="0.125"/><stop style="stop-color:#c6f6dd;stop-opacity:1;" offset="0.132812"/><stop style="stop-color:#c5f5dd;stop-opacity:1;" offset="0.140625"/><stop style="stop-color:#c5f5de;stop-opacity:1;" offset="0.148438"/><stop style="stop-color:#c4f4de;stop-opacity:1;" offset="0.15625"/><stop style="stop-color:#c4f4de;stop-opacity:1;" offset="0.164062"/><stop style="stop-color:#c3f3df;stop-opacity:1;" offset="0.171875"/><stop style="stop-color:#c3f3df;stop-opacity:1;" offset="0.179688"/><stop style="stop-color:#c3f2df;stop-opacity:1;" offset="0.1875"/><stop style="stop-color:#c2f2df;stop-opacity:1;" offset="0.195312"/><stop style="stop-color:#c2f1e0;stop-opacity:1;" offset="0.203125"/><stop style="stop-color:#c1f0e0;stop-opacity:1;" offset="0.210938"/><stop style="stop-color:#c1f0e0;stop-opacity:1;" offset="0.21875"/><stop style="stop-color:#c0efe1;stop-opacity:1;" offset="0.226562"/><stop style="stop-color:#c0efe1;stop-opacity:1;" offset="0.234375"/><stop style="stop-color:#bfeee1;stop-opacity:1;" offset="0.242188"/><stop style="stop-color:#bfeee2;stop-opacity:1;" offset="0.25"/><stop style="stop-color:#bfede2;stop-opacity:1;" offset="0.257812"/><stop style="stop-color:#beede2;stop-opacity:1;" offset="0.265625"/><stop style="stop-color:#beece2;stop-opacity:1;" offset="0.273438"/><stop style="stop-color:#bdece3;stop-opacity:1;" offset="0.28125"/><stop style="stop-color:#bdebe3;stop-opacity:1;" offset="0.289063"/><stop style="stop-color:#bceae3;stop-opacity:1;" offset="0.296875"/><stop style="stop-color:#bceae4;stop-opacity:1;" offset="0.304688"/><stop style="stop-color:#bbe9e4;stop-opacity:1;" offset="0.3125"/><stop style="stop-color:#bbe9e4;stop-opacity:1;" offset="0.320312"/><stop style="stop-color:#bae8e5;stop-opacity:1;" offset="0.328125"/><stop style="stop-color:#bae8e5;stop-opacity:1;" offset="0.335938"/><stop style="stop-color:#bae7e5;stop-opacity:1;" offset="0.34375"/><stop style="stop-color:#b9e7e6;stop-opacity:1;" offset="0.351562"/><stop style="stop-color:#b9e6e6;stop-opacity:1;" offset="0.359375"/><stop style="stop-color:#b8e6e6;stop-opacity:1;" offset="0.367188"/><stop style="stop-color:#b8e5e6;stop-opacity:1;" offset="0.375"/><stop style="stop-color:#b7e4e7;stop-opacity:1;" offset="0.382812"/><stop style="stop-color:#b7e4e7;stop-opacity:1;" offset="0.390625"/><stop style="stop-color:#b6e3e7;stop-opacity:1;" offset="0.398438"/><stop style="stop-color:#b6e3e8;stop-opacity:1;" offset="0.40625"/><stop style="stop-color:#b6e2e8;stop-opacity:1;" offset="0.414062"/><stop style="stop-color:#b5e2e8;stop-opacity:1;" offset="0.421875"/><stop style="stop-color:#b5e1e9;stop-opacity:1;" offset="0.429688"/><stop style="stop-color:#b4e1e9;stop-opacity:1;" offset="0.4375"/><stop style="stop-color:#b4e0e9;stop-opacity:1;" offset="0.445312"/><stop style="stop-color:#b3dfea;stop-opacity:1;" offset="0.453125"/><stop style="stop-color:#b3dfea;stop-opacity:1;" offset="0.460938"/><stop style="stop-color:#b2deea;stop-opacity:1;" offset="0.46875"/><stop style="stop-color:#b2deea;stop-opacity:1;" offset="0.476562"/><stop style="stop-color:#b2ddeb;stop-opacity:1;" offset="0.484375"/><stop style="stop-color:#b1ddeb;stop-opacity:1;" offset="0.492188"/><stop style="stop-color:#b1dceb;stop-opacity:1;" offset="0.5"/><stop style="stop-color:#b0dcec;stop-opacity:1;" offset="0.507812"/><stop style="stop-color:#b0dbec;stop-opacity:1;" offset="0.515625"/><stop style="stop-color:#afdbec;stop-opacity:1;" offset="0.523438"/><stop style="stop-color:#afdaed;stop-opacity:1;" offset="0.53125"/><stop style="stop-color:#aed9ed;stop-opacity:1;" offset="0.539062"/><stop style="stop-color:#aed9ed;stop-opacity:1;" offset="0.546875"/><stop style="stop-color:#aed8ed;stop-opacity:1;" offset="0.554688"/><stop style="stop-color:#add8ee;stop-opacity:1;" offset="0.5625"/><stop style="stop-color:#add7ee;stop-opacity:1;" offset="0.570312"/><stop style="stop-color:#acd7ee;stop-opacity:1;" offset="0.578125"/><stop style="stop-color:#acd6ef;stop-opacity:1;" offset="0.585938"/><stop style="stop-color:#abd6ef;stop-opacity:1;" offset="0.59375"/><stop style="stop-color:#abd5ef;stop-opacity:1;" offset="0.601563"/><stop style="stop-color:#aad5f0;stop-opacity:1;" offset="0.609375"/><stop style="stop-color:#aad4f0;stop-opacity:1;" offset="0.617188"/><stop style="stop-color:#aad3f0;stop-opacity:1;" offset="0.625"/><stop style="stop-color:#a9d3f1;stop-opacity:1;" offset="0.632812"/><stop style="stop-color:#a9d2f1;stop-opacity:1;" offset="0.640625"/><stop style="stop-color:#a8d2f1;stop-opacity:1;" offset="0.648438"/><stop style="stop-color:#a8d1f1;stop-opacity:1;" offset="0.65625"/><stop style="stop-color:#a7d1f2;stop-opacity:1;" offset="0.664063"/><stop style="stop-color:#a7d0f2;stop-opacity:1;" offset="0.671875"/><stop style="stop-color:#a6d0f2;stop-opacity:1;" offset="0.679688"/><stop style="stop-color:#a6cff3;stop-opacity:1;" offset="0.6875"/><stop style="stop-color:#a6cff3;stop-opacity:1;" offset="0.695313"/><stop style="stop-color:#a5cef3;stop-opacity:1;" offset="0.703125"/><stop style="stop-color:#a5cdf4;stop-opacity:1;" offset="0.710938"/><stop style="stop-color:#a4cdf4;stop-opacity:1;" offset="0.71875"/><stop style="stop-color:#a4ccf4;stop-opacity:1;" offset="0.726562"/><stop style="stop-color:#a3ccf4;stop-opacity:1;" offset="0.734375"/><stop style="stop-color:#a3cbf5;stop-opacity:1;" offset="0.742188"/><stop style="stop-color:#a2cbf5;stop-opacity:1;" offset="0.75"/><stop style="stop-color:#a2caf5;stop-opacity:1;" offset="0.757812"/><stop style="stop-color:#a2caf6;stop-opacity:1;" offset="0.765625"/><stop style="stop-color:#a1c9f6;stop-opacity:1;" offset="0.773438"/><stop style="stop-color:#a1c8f6;stop-opacity:1;" offset="0.78125"/><stop style="stop-color:#a0c8f7;stop-opacity:1;" offset="0.789062"/><stop style="stop-color:#a0c7f7;stop-opacity:1;" offset="0.796875"/><stop style="stop-color:#9fc7f7;stop-opacity:1;" offset="0.804688"/><stop style="stop-color:#9fc6f8;stop-opacity:1;" offset="0.8125"/><stop style="stop-color:#9ec6f8;stop-opacity:1;" offset="0.820313"/><stop style="stop-color:#9ec5f8;stop-opacity:1;" offset="0.828125"/><stop style="stop-color:#9dc5f8;stop-opacity:1;" offset="0.835938"/><stop style="stop-color:#9dc4f9;stop-opacity:1;" offset="0.84375"/><stop style="stop-color:#9dc4f9;stop-opacity:1;" offset="0.851562"/><stop style="stop-color:#9cc3f9;stop-opacity:1;" offset="0.859375"/><stop style="stop-color:#9cc2fa;stop-opacity:1;" offset="0.867188"/><stop style="stop-color:#9bc2fa;stop-opacity:1;" offset="0.875"/><stop style="stop-color:#9bc1fa;stop-opacity:1;" offset="0.882812"/><stop style="stop-color:#9ac1fb;stop-opacity:1;" offset="0.890625"/><stop style="stop-color:#9ac0fb;stop-opacity:1;" offset="0.898438"/><stop style="stop-color:#99c0fb;stop-opacity:1;" offset="0.90625"/><stop style="stop-color:#99bffb;stop-opacity:1;" offset="0.914062"/><stop style="stop-color:#99bffc;stop-opacity:1;" offset="0.921875"/><stop style="stop-color:#98befc;stop-opacity:1;" offset="0.929688"/><stop style="stop-color:#98befc;stop-opacity:1;" offset="0.9375"/><stop style="stop-color:#97bdfd;stop-opacity:1;" offset="0.945312"/><stop style="stop-color:#97bcfd;stop-opacity:1;" offset="0.953125"/><stop style="stop-color:#96bcfd;stop-opacity:1;" offset="0.960938"/><stop style="stop-color:#96bbfe;stop-opacity:1;" offset="0.96875"/><stop style="stop-color:#95bbfe;stop-opacity:1;" offset="0.976562"/><stop style="stop-color:#95bafe;stop-opacity:1;" offset="0.984375"/><stop style="stop-color:#95baff;stop-opacity:1;" offset="0.992188"/><stop style="stop-color:#94b9ff;stop-opacity:1;" offset="1"/></linearGradient><clipPath id="ed66c8df20"><path d="M 0 2.914062 L 374.882812 2.914062 L 374.882812 375 L 0 375 Z M 0 2.914062 "/></clipPath><clipPath id="41650144fc"><path d="M 75.179688 59.28125 L 264 59.28125 L 264 321.78125 L 75.179688 321.78125 Z M 75.179688 59.28125 "/></clipPath></defs><g id="b5a5889612"><g clip-rule="nonzero" clip-path="url(#bb18cfb141)"><g clip-rule="nonzero" clip-path="url(#7b1bc6a48b)"><path style=" stroke:none;fill-rule:nonzero;fill:url(#c778fa9d61);" d="M 0 4.371094 L 0 375 L 375 375 L 375 4.371094 Z M 0 4.371094 "/></g></g><g clip-rule="nonzero" clip-path="url(#ed66c8df20)"><path style=" stroke:none;fill-rule:nonzero;fill:#000000;fill-opacity:1;" d="M 166.355469 377.054688 C 110.851562 370.808594 61.0625 340.21875 30.070312 293.320312 C -31.589844 200 2.792969 72.519531 103.160156 22.332031 C 130.023438 8.894531 155.851562 2.921875 187.082031 2.921875 C 217.730469 2.921875 244.261719 9.003906 270.164062 21.960938 C 325.703125 49.753906 363.164062 101.128906 372.746094 162.636719 C 374.847656 176.125 374.875 204.914062 372.792969 217.867188 C 366.359375 258.015625 349.667969 291.765625 322.066406 320.433594 C 305.835938 337.292969 290.296875 348.628906 269.257812 358.960938 C 237.820312 374.398438 200.707031 380.921875 166.351562 377.058594 Z M 181.707031 363.789062 C 182.039062 357.988281 181.996094 352.964844 181.613281 352.621094 C 181.230469 352.277344 177.449219 351.773438 173.207031 351.5 L 165.5 351.003906 L 164.878906 355.144531 C 164.40625 358.300781 163.851562 359.285156 162.539062 359.285156 C 161.59375 359.285156 160.589844 358.90625 160.300781 358.441406 C 159.695312 357.457031 160.648438 349.625 161.554688 348.15625 C 161.988281 347.453125 165.707031 347.480469 174.128906 348.238281 L 186.085938 349.316406 L 186.183594 358.769531 C 186.238281 363.964844 186.199219 369.59375 186.105469 371.273438 L 185.9375 374.328125 L 192.542969 374.328125 C 199.722656 374.328125 218.859375 372.039062 225.359375 370.402344 C 227.894531 369.761719 229.253906 368.945312 228.976562 368.226562 C 228.734375 367.59375 227.566406 362.773438 226.382812 357.511719 C 225.050781 351.613281 223.828125 348.101562 223.183594 348.347656 C 222.613281 348.570312 218.855469 349.28125 214.835938 349.929688 L 207.527344 351.109375 L 208.121094 355.078125 C 208.65625 358.644531 208.503906 359.101562 206.605469 359.597656 C 205.441406 359.902344 204.421875 360.0625 204.339844 359.953125 C 204.253906 359.84375 203.90625 357.175781 203.566406 354.027344 L 202.941406 348.300781 L 212.601562 346.597656 C 217.917969 345.660156 223.5 344.851562 225.007812 344.800781 C 227.992188 344.703125 227.359375 343.195312 233.121094 364.222656 C 233.652344 366.164062 234.679688 367.746094 235.40625 367.746094 C 239.492188 367.746094 269.652344 355.898438 272.410156 353.210938 C 273.476562 352.171875 272.980469 350.621094 269.351562 343.636719 C 266.96875 339.054688 264.660156 334.742188 264.214844 334.054688 C 263.582031 333.0625 261.953125 333.53125 256.464844 336.28125 C 252.644531 338.191406 249.363281 339.902344 249.167969 340.078125 C 248.976562 340.257812 249.476562 342.054688 250.285156 344.074219 C 251.722656 347.671875 251.707031 347.773438 249.566406 348.75 C 247.496094 349.691406 247.265625 349.449219 245.394531 344.3125 C 243.097656 338.011719 243.050781 337.65625 244.484375 337.65625 C 245.074219 337.65625 250.152344 335.472656 255.769531 332.804688 C 261.386719 330.136719 266.113281 328.128906 266.273438 328.339844 C 266.433594 328.550781 268.964844 332.957031 271.902344 338.128906 C 274.839844 343.300781 277.621094 348.121094 278.085938 348.839844 C 278.757812 349.878906 280.847656 348.890625 288.191406 344.070312 C 297.128906 338.199219 312.488281 325.855469 312.488281 324.539062 C 312.488281 324.1875 309.25 320.378906 305.292969 316.074219 L 298.09375 308.25 L 291.960938 313.316406 C 288.589844 316.101562 285.800781 318.742188 285.765625 319.1875 C 285.726562 319.628906 286.777344 321.269531 288.09375 322.832031 L 290.480469 325.671875 L 288.5 327.058594 C 287.414062 327.820312 286.40625 328.296875 286.265625 328.117188 C 284.433594 325.757812 279.960938 318.671875 280.207031 318.519531 C 281.839844 317.507812 290.824219 310.058594 294.300781 306.839844 L 298.667969 302.789062 L 307.746094 311.78125 C 312.738281 316.730469 317.234375 320.523438 317.738281 320.210938 C 320.832031 318.300781 343.03125 289.566406 343.03125 287.476562 C 343.03125 286.398438 324.839844 275.558594 324.164062 276.234375 C 323.738281 276.660156 321.46875 279.761719 319.125 283.121094 C 314.480469 289.777344 314.421875 289.132812 320.003906 292.953125 C 321.753906 294.144531 321.777344 294.351562 320.339844 295.832031 C 318.621094 297.609375 317.816406 297.320312 312.921875 293.144531 C 310.695312 291.246094 310.042969 290.117188 310.667969 289.246094 C 311.152344 288.574219 314.234375 284.066406 317.523438 279.226562 C 320.808594 274.386719 323.609375 270.304688 323.746094 270.15625 C 323.882812 270.003906 328.726562 272.648438 334.507812 276.03125 C 340.289062 279.414062 345.414062 282.179688 345.898438 282.179688 C 347.867188 282.179688 362.765625 248.695312 362.765625 244.269531 C 362.765625 243.402344 359.617188 242.046875 353.605469 240.332031 C 348.566406 238.894531 343.871094 237.675781 343.175781 237.617188 C 342.410156 237.558594 340.839844 240.496094 339.207031 245.039062 C 337.71875 249.175781 336.492188 252.621094 336.476562 252.695312 C 336.460938 252.769531 338.144531 253.503906 340.210938 254.332031 C 344.144531 255.90625 344.484375 256.40625 343.097656 258.597656 C 342.375 259.738281 341.664062 259.703125 338.179688 258.351562 C 331.222656 255.660156 331.355469 256.117188 334.890625 246.84375 C 336.648438 242.230469 338.386719 237.082031 338.753906 235.402344 C 339.164062 233.519531 339.992188 232.34375 340.914062 232.34375 C 341.734375 232.34375 347.25 233.648438 353.171875 235.238281 C 359.09375 236.832031 364.269531 237.78125 364.675781 237.355469 C 366.644531 235.28125 372.042969 198.699219 370.699219 196.523438 C 370.410156 196.054688 365.398438 195.675781 359.5625 195.675781 L 348.949219 195.675781 L 348.355469 203.371094 C 348.027344 207.601562 347.929688 211.234375 348.140625 211.441406 C 348.347656 211.648438 350.25 212.050781 352.375 212.335938 C 355.777344 212.792969 356.164062 213.089844 355.625 214.84375 C 355.289062 215.9375 354.914062 216.945312 354.792969 217.089844 C 354.671875 217.230469 352.140625 217.0625 349.164062 216.710938 L 343.753906 216.074219 L 344.355469 208.460938 C 344.6875 204.273438 345.207031 198.625 345.511719 195.910156 L 346.066406 190.972656 L 371.226562 190.972656 L 371.226562 187.3125 C 371.226562 178.34375 367.445312 150.203125 366.050781 148.8125 C 365.503906 148.265625 346.609375 152.402344 345.625 153.285156 C 345.238281 153.628906 345.558594 157.210938 346.328125 161.242188 C 347.101562 165.273438 347.730469 168.804688 347.730469 169.085938 C 347.730469 169.371094 349.632812 169.339844 351.960938 169.023438 C 355.945312 168.476562 356.1875 168.570312 356.1875 170.675781 C 356.1875 173.316406 354.652344 174.046875 349.105469 174.046875 C 345.085938 174.046875 344.984375 173.972656 344.414062 170.523438 C 343.390625 164.285156 340.96875 152.097656 340.523438 150.941406 C 340.242188 150.207031 343.976562 148.757812 351.410156 146.722656 C 357.632812 145.019531 363.207031 143.328125 363.800781 142.960938 C 364.5625 142.488281 363.988281 139.613281 361.804688 133.019531 C 358.675781 123.554688 351.113281 105.601562 349.628906 104.113281 C 349.03125 103.511719 332.839844 111.195312 330.101562 113.378906 C 329.5 113.855469 336.613281 127.972656 337.449219 127.972656 C 337.96875 127.972656 339.828125 127.375 341.582031 126.640625 C 344.371094 125.472656 344.835938 125.480469 345.308594 126.71875 C 346.273438 129.230469 345.90625 129.804688 342.378906 131.277344 C 336.003906 133.945312 334.816406 133.988281 334.074219 131.578125 C 333.699219 130.371094 331.363281 125.289062 328.875 120.289062 L 324.351562 111.191406 L 335.53125 104.925781 L 346.714844 98.65625 L 342.808594 92.394531 C 337.933594 84.566406 330.304688 74.339844 325 68.515625 L 320.945312 64.066406 L 313.191406 71.40625 C 305.917969 78.292969 304.421875 80.359375 306.160156 81.117188 C 306.558594 81.289062 308.738281 83.652344 311.007812 86.367188 C 313.273438 89.082031 315.503906 91.300781 315.960938 91.300781 C 316.417969 91.300781 318.078125 90.351562 319.648438 89.1875 C 322.429688 87.132812 322.542969 87.121094 323.804688 88.847656 C 324.980469 90.460938 324.71875 90.914062 320.964844 93.785156 C 318.691406 95.523438 316.429688 96.945312 315.945312 96.945312 C 315.457031 96.945312 313.851562 95.355469 312.378906 93.417969 C 310.90625 91.480469 307.492188 87.285156 304.796875 84.097656 L 299.890625 78.300781 L 308.304688 69.730469 C 312.929688 65.019531 316.714844 60.8125 316.714844 60.382812 C 316.714844 58.433594 295.871094 41.058594 287.429688 35.96875 L 283.988281 33.894531 L 282.144531 36.503906 C 281.128906 37.941406 278.5 42.070312 276.300781 45.679688 L 272.300781 52.246094 L 274.925781 54.144531 C 276.367188 55.1875 279.359375 57.394531 281.574219 59.050781 L 285.59375 62.058594 L 288.359375 58.609375 C 290.761719 55.617188 291.324219 55.328125 292.640625 56.421875 C 294.726562 58.152344 294.632812 58.492188 290.714844 63.324219 L 287.265625 67.578125 L 281.550781 63.152344 C 278.40625 60.714844 274.171875 57.695312 272.136719 56.441406 C 270.101562 55.1875 268.039062 53.890625 267.546875 53.558594 C 267.054688 53.226562 269.460938 48.207031 272.886719 42.410156 C 276.316406 36.609375 279.125 31.558594 279.125 31.179688 C 279.125 29.625 244.210938 14.199219 240.683594 14.199219 C 239.886719 14.199219 233.460938 34.695312 234.097656 35.207031 C 234.738281 35.722656 248.160156 40.527344 248.960938 40.527344 C 249.371094 40.527344 250.378906 38.804688 251.203125 36.703125 C 252.550781 33.277344 252.902344 32.988281 254.636719 33.917969 C 255.699219 34.484375 256.566406 35.113281 256.566406 35.308594 C 256.566406 35.828125 252.753906 44.65625 252.359375 45.050781 C 252.117188 45.292969 229.988281 38.03125 228.652344 37.273438 C 228.542969 37.210938 229.917969 31.773438 231.707031 25.191406 C 233.492188 18.605469 234.953125 13.066406 234.953125 12.878906 C 234.953125 11.574219 213.203125 7.625 202.441406 6.980469 L 192.960938 6.410156 L 192.316406 17.019531 C 191.960938 22.851562 191.839844 27.796875 192.046875 28 C 192.253906 28.207031 196.007812 28.628906 200.386719 28.9375 L 208.355469 29.5 L 208.976562 25.609375 C 209.519531 22.207031 209.90625 21.71875 212.042969 21.71875 C 214.347656 21.71875 214.449219 21.921875 213.878906 25.246094 C 212.363281 34.0625 212.324219 34.144531 210.1875 33.574219 C 209.078125 33.273438 203.667969 32.753906 198.171875 32.414062 L 188.175781 31.792969 L 187.796875 19.71875 C 187.589844 13.074219 186.992188 7.210938 186.464844 6.683594 C 184.703125 4.917969 147.773438 9.015625 145.5 11.222656 C 144.417969 12.277344 149.632812 33.125 150.859375 32.65625 C 151.460938 32.425781 155.148438 31.699219 159.050781 31.042969 L 166.152344 29.847656 L 166.011719 25.550781 C 165.894531 21.835938 166.144531 21.210938 167.863281 20.964844 C 169.644531 20.710938 169.917969 21.28125 170.503906 26.472656 C 170.867188 29.65625 171.027344 32.359375 170.867188 32.476562 C 170.707031 32.59375 166.132812 33.445312 160.707031 34.363281 C 155.277344 35.285156 149.78125 36.230469 148.488281 36.46875 C 146.203125 36.890625 146.054688 36.574219 142.964844 24.621094 C 139.277344 10.351562 141.316406 11.214844 124.992188 17.046875 C 113.402344 21.1875 100.558594 27.191406 100.558594 28.46875 C 100.558594 30.039062 110.082031 47.109375 110.960938 47.109375 C 111.59375 47.109375 122.652344 42.105469 124.875 40.808594 C 125.070312 40.695312 124.523438 38.839844 123.660156 36.6875 C 121.921875 32.332031 121.882812 32.53125 124.621094 31.691406 C 126.335938 31.164062 126.867188 31.789062 128.636719 36.410156 C 129.753906 39.34375 130.558594 41.820312 130.417969 41.921875 C 130.277344 42.023438 125.195312 44.472656 119.121094 47.371094 L 108.082031 52.636719 L 101.882812 42.113281 C 98.476562 36.328125 95.527344 31.429688 95.332031 31.230469 C 94.238281 30.113281 75.191406 43.386719 65.5 52.019531 L 60.988281 56.042969 L 63.953125 59.332031 C 65.582031 61.140625 69.019531 64.824219 71.59375 67.511719 L 76.273438 72.402344 L 79.253906 69.757812 C 80.890625 68.304688 83.695312 65.835938 85.480469 64.273438 L 88.734375 61.4375 L 86.242188 58.167969 C 84.375 55.714844 84.019531 54.628906 84.824219 53.824219 C 86.679688 51.96875 87.929688 52.621094 91.164062 57.125 L 94.304688 61.5 L 91.949219 63.472656 C 78.664062 74.601562 76.15625 76.851562 76.140625 77.648438 C 76.132812 78.15625 71.898438 74.363281 66.738281 69.21875 L 57.355469 59.863281 L 53.503906 63.59375 C 45.871094 70.988281 30.570312 91.390625 31.214844 93.316406 C 31.542969 94.308594 47.632812 104.464844 48.871094 104.464844 C 49.21875 104.464844 51.519531 101.539062 53.984375 97.960938 L 58.46875 91.457031 L 55.3125 88.613281 C 52.503906 86.085938 52.3125 85.617188 53.566406 84.351562 C 54.824219 83.082031 55.460938 83.300781 59.425781 86.371094 C 63.582031 89.585938 63.785156 89.9375 62.507812 91.730469 C 61.753906 92.789062 58.695312 97.335938 55.707031 101.839844 C 52.722656 106.34375 49.917969 110.046875 49.480469 110.066406 C 49.042969 110.089844 44.8125 107.839844 40.082031 105.070312 C 35.351562 102.300781 30.558594 99.550781 29.429688 98.957031 C 27.484375 97.941406 27.109375 98.429688 22.183594 108.460938 C 19.328125 114.28125 15.507812 123.152344 13.691406 128.179688 L 10.390625 137.316406 L 13.886719 138.273438 C 15.8125 138.800781 20.691406 140.253906 24.730469 141.511719 C 29.863281 143.105469 32.167969 143.460938 32.390625 142.699219 C 32.5625 142.097656 33.804688 138.515625 35.148438 134.734375 C 36.492188 130.957031 37.589844 127.746094 37.589844 127.597656 C 37.589844 127.453125 35.898438 126.773438 33.832031 126.09375 C 29.644531 124.710938 29.699219 124.785156 31.035156 122.289062 C 31.964844 120.554688 32.171875 120.578125 37.164062 123.027344 C 40.992188 124.90625 42.171875 125.9375 41.710938 127.003906 C 41.371094 127.796875 39.5625 132.886719 37.695312 138.316406 C 35.828125 143.746094 34.234375 148.328125 34.152344 148.496094 C 34.066406 148.664062 28.4375 147.324219 21.640625 145.515625 C 12.949219 143.203125 9.164062 142.554688 8.898438 143.328125 C 6.566406 150.042969 2.035156 182.976562 3.273438 184.222656 C 3.621094 184.574219 8.671875 185 14.496094 185.171875 L 25.085938 185.484375 L 25.695312 179.0625 C 26.652344 168.886719 26.585938 168.40625 24.199219 168.394531 C 19.960938 168.367188 18.050781 167.390625 18.542969 165.503906 C 19.050781 163.558594 20.074219 163.398438 26.484375 164.277344 L 30.675781 164.855469 L 29.957031 170.15625 C 29.5625 173.070312 28.964844 178.738281 28.632812 182.746094 L 28.03125 190.03125 L 2.550781 190.03125 L 3.214844 200.609375 C 3.828125 210.367188 6.8125 231.011719 7.746094 231.945312 C 8.195312 232.394531 27.988281 228.164062 28.683594 227.464844 C 28.929688 227.21875 28.464844 223.421875 27.648438 219.027344 L 26.167969 211.039062 L 22.011719 211.667969 C 17.921875 212.289062 17.855469 212.257812 17.855469 209.628906 C 17.855469 207.097656 18.070312 206.957031 22.007812 206.957031 C 24.289062 206.957031 26.800781 206.710938 27.585938 206.410156 C 28.667969 205.996094 29.152344 206.742188 29.566406 209.464844 C 29.867188 211.445312 30.878906 217.019531 31.816406 221.847656 L 33.519531 230.628906 L 31.558594 231.363281 C 30.484375 231.765625 25.054688 233.273438 19.5 234.710938 C 13.261719 236.328125 9.394531 237.792969 9.394531 238.535156 C 9.394531 242.210938 22.214844 274.261719 24.894531 277.28125 C 25.1875 277.613281 42.453125 268.28125 43.535156 267.203125 C 44.117188 266.621094 38.722656 254.078125 37.113281 252.269531 C 36.96875 252.109375 35.253906 252.648438 33.296875 253.46875 C 30.460938 254.652344 29.585938 254.710938 28.980469 253.757812 C 27.484375 251.402344 28.253906 250.363281 32.589844 248.886719 C 38.367188 246.917969 39.222656 246.988281 39.976562 249.503906 C 40.324219 250.667969 42.46875 255.3125 44.738281 259.824219 C 47.007812 264.335938 48.867188 268.40625 48.867188 268.871094 C 48.867188 269.335938 44.21875 272.339844 38.539062 275.550781 C 32.859375 278.757812 28.003906 281.71875 27.753906 282.128906 C 26.773438 283.71875 48.394531 313.109375 52.160156 315.308594 C 53.308594 315.976562 68.355469 303.367188 68.523438 301.589844 C 68.601562 300.816406 66.730469 298.394531 60.953125 291.773438 L 58.25 288.675781 L 54.941406 291.199219 C 53.125 292.589844 51.527344 293.558594 51.394531 293.359375 C 51.261719 293.15625 50.628906 292.300781 49.984375 291.453125 C 48.976562 290.128906 49.488281 289.433594 53.636719 286.449219 L 58.460938 282.980469 L 59.921875 285.066406 C 60.726562 286.214844 64.34375 290.507812 67.960938 294.609375 L 74.535156 302.0625 L 65.929688 310.710938 C 61.199219 315.464844 57.324219 319.808594 57.324219 320.363281 C 57.324219 322.105469 74.136719 336.308594 84.269531 343.125 L 90.070312 347.027344 L 95.894531 337.597656 C 99.097656 332.410156 101.566406 328.050781 101.375 327.914062 C 101.183594 327.777344 98.109375 325.617188 94.542969 323.109375 L 88.0625 318.554688 L 85.59375 321.578125 C 83.863281 323.699219 82.648438 324.414062 81.503906 323.976562 C 79.257812 323.113281 79.40625 322.589844 83.3125 317.574219 C 86.300781 313.734375 86.949219 313.320312 88.355469 314.363281 C 89.242188 315.019531 93.089844 317.761719 96.90625 320.453125 C 100.722656 323.144531 104.570312 325.894531 105.453125 326.566406 C 106.929688 327.679688 106.554688 328.652344 101.019531 338.125 C 97.695312 343.816406 94.960938 348.746094 94.945312 349.085938 C 94.898438 349.992188 103.652344 354.753906 112.773438 358.789062 C 120.632812 362.265625 133.589844 367.023438 133.953125 366.566406 C 134.441406 365.964844 140.117188 345.902344 139.855469 345.714844 C 138.4375 344.683594 124.75 340.515625 124.097656 340.917969 C 123.636719 341.203125 122.980469 342.699219 122.640625 344.238281 C 121.882812 347.6875 121.03125 348.277344 118.980469 346.777344 C 117.503906 345.695312 117.535156 345.277344 119.4375 340.695312 C 120.5625 337.988281 121.808594 335.777344 122.203125 335.777344 C 122.597656 335.777344 126.664062 337.210938 131.242188 338.964844 C 135.816406 340.71875 140.949219 342.445312 142.648438 342.808594 C 145.289062 343.367188 145.644531 343.761719 145.09375 345.496094 C 142.828125 352.640625 139.230469 367.214844 139.589844 367.796875 C 140.601562 369.433594 167.066406 374.011719 176.769531 374.230469 L 181.089844 374.328125 L 181.695312 363.785156 Z M 193.277344 366.148438 C 192.953125 364.183594 192.683594 358.511719 192.679688 353.546875 L 192.667969 344.515625 L 181.625 343.867188 C 175.554688 343.511719 167.675781 342.773438 164.117188 342.226562 C 159.410156 341.507812 157.472656 341.523438 157.003906 342.285156 C 156.644531 342.863281 155.589844 347.394531 154.65625 352.355469 C 152.730469 362.585938 152.691406 362.503906 159.695312 363.480469 C 162.066406 363.8125 165.378906 364.320312 167.058594 364.609375 C 169.949219 365.109375 170.113281 364.984375 170.113281 362.289062 C 170.113281 357.992188 171.015625 356.464844 173.546875 356.464844 C 175.765625 356.464844 175.832031 356.660156 175.5625 362.339844 L 175.28125 368.21875 L 169.175781 368.191406 C 163.027344 368.167969 149.578125 366.175781 147.695312 365.011719 C 147.003906 364.582031 147.5625 360.675781 149.457031 352.667969 C 150.984375 346.222656 152.238281 340.726562 152.246094 340.453125 C 152.246094 340.179688 149.191406 339.167969 145.445312 338.203125 C 140.070312 336.820312 126.476562 331.761719 119.820312 328.667969 C 118.933594 328.253906 109.96875 345.007812 109.96875 347.074219 C 109.96875 347.921875 123.234375 354.582031 124.921875 354.582031 C 125.320312 354.582031 126.210938 352.863281 126.90625 350.757812 C 127.949219 347.585938 128.5 347.019531 130.109375 347.453125 C 131.179688 347.742188 132.332031 347.980469 132.671875 347.988281 C 133.523438 348.007812 129.488281 360.226562 128.632812 360.226562 C 127.6875 360.226562 106.082031 351.027344 104.328125 349.878906 C 103.136719 349.101562 103.851562 347.171875 108.875 337.59375 C 112.152344 331.34375 114.691406 326.121094 114.515625 325.988281 C 114.339844 325.859375 111.445312 324.117188 108.085938 322.125 C 100.867188 317.84375 97.109375 315.1875 90.542969 309.71875 L 85.683594 305.675781 L 78.46875 313.785156 C 72.53125 320.464844 71.480469 322.105469 72.519531 323.070312 C 73.214844 323.714844 76.265625 326.230469 79.300781 328.664062 L 84.820312 333.082031 L 87.203125 329.730469 C 89.878906 325.96875 90.125 325.871094 92.515625 327.625 C 94.125 328.800781 94.023438 329.171875 90.691406 334.191406 L 87.160156 339.515625 L 84.703125 337.609375 C 83.347656 336.5625 80.761719 334.714844 78.953125 333.5 C 77.144531 332.289062 73.140625 328.988281 70.0625 326.167969 L 64.460938 321.042969 L 72.882812 312.339844 C 77.511719 307.550781 81.300781 303.304688 81.300781 302.898438 C 81.300781 302.496094 78.679688 299.375 75.472656 295.964844 C 72.265625 292.554688 67.257812 286.59375 64.34375 282.71875 L 59.039062 275.667969 L 50.433594 281.414062 C 45.703125 284.574219 41.691406 287.273438 41.523438 287.40625 C 41.019531 287.8125 50.84375 300.988281 51.644531 300.988281 C 52.050781 300.988281 53.457031 300.140625 54.773438 299.105469 C 57.640625 296.847656 58.609375 296.769531 60.179688 298.664062 C 61.167969 299.859375 60.988281 300.511719 59.121094 302.519531 C 57.878906 303.847656 55.792969 305.703125 54.476562 306.644531 L 52.089844 308.359375 L 47.84375 303.027344 C 42.726562 296.601562 35.722656 286.34375 35.722656 285.273438 C 35.722656 284.851562 38.152344 283.054688 41.125 281.285156 C 44.097656 279.511719 48.757812 276.644531 51.488281 274.90625 L 56.445312 271.75 L 52.105469 263.785156 C 49.722656 259.40625 46.34375 252.339844 44.601562 248.082031 C 42.859375 243.824219 41.101562 240.339844 40.691406 240.339844 C 38.066406 240.339844 21.644531 246.195312 21.632812 247.136719 C 21.613281 248.675781 26.210938 260.820312 27.167969 261.78125 C 27.585938 262.195312 29.492188 261.789062 31.410156 260.875 C 34.429688 259.433594 35.007812 259.398438 35.761719 260.589844 C 37.378906 263.148438 36.675781 264.277344 31.992188 266.652344 C 29.425781 267.953125 26.945312 269.019531 26.480469 269.019531 C 25.480469 269.019531 17.03125 247.964844 16.691406 244.625 C 16.46875 242.464844 17.128906 242.121094 27.730469 238.90625 C 40.742188 234.957031 39.917969 236.484375 36.84375 222.003906 C 35.800781 217.09375 34.644531 210.164062 34.269531 206.613281 L 33.597656 200.152344 L 23.144531 200.824219 C 17.398438 201.195312 12.542969 201.644531 12.351562 201.828125 C 11.953125 202.214844 13.738281 218.191406 14.234375 218.6875 C 14.421875 218.871094 16.339844 218.699219 18.496094 218.300781 C 21.996094 217.660156 22.472656 217.792969 22.945312 219.558594 C 23.238281 220.644531 23.484375 221.796875 23.488281 222.117188 C 23.488281 222.4375 20.90625 223.210938 17.730469 223.835938 C 13.3125 224.707031 11.796875 224.714844 11.273438 223.867188 C 10.609375 222.792969 8.96875 211.382812 8.082031 201.683594 L 7.644531 196.875 L 20.011719 196.203125 C 26.8125 195.832031 32.707031 195.328125 33.109375 195.078125 C 33.511719 194.828125 33.839844 190.765625 33.839844 186.046875 C 33.839844 181.328125 34.320312 173.722656 34.90625 169.148438 C 35.492188 164.570312 35.777344 160.632812 35.539062 160.394531 C 34.949219 159.800781 15.90625 155.945312 15.527344 156.339844 C 15.359375 156.511719 14.621094 160.25 13.886719 164.648438 C 12.40625 173.488281 12.570312 173.84375 18.097656 173.984375 C 20.210938 174.039062 20.683594 174.480469 20.683594 176.402344 C 20.683594 178.667969 20.464844 178.75 14.574219 178.75 L 8.464844 178.75 L 8.464844 175.554688 C 8.464844 172.640625 11.953125 150.4375 12.472656 150.03125 C 12.59375 149.9375 17.769531 151.054688 23.972656 152.515625 C 30.175781 153.976562 35.714844 155.1875 36.285156 155.207031 C 36.855469 155.226562 38.085938 152.390625 39.019531 148.898438 C 39.953125 145.40625 42.371094 138.53125 44.386719 133.617188 C 46.40625 128.707031 48.273438 124.019531 48.535156 123.207031 C 48.894531 122.089844 46.664062 120.636719 39.4375 117.28125 C 34.171875 114.835938 29.777344 112.964844 29.675781 113.117188 C 28.929688 114.246094 23.5 127.222656 23.5 127.882812 C 23.5 128.339844 25.195312 129.390625 27.261719 130.21875 C 31.328125 131.84375 31.640625 132.410156 29.84375 134.871094 C 28.738281 136.382812 28.375 136.386719 23.96875 134.925781 C 21.386719 134.070312 18.894531 133.023438 18.433594 132.605469 C 17.433594 131.699219 20.59375 122.707031 25.179688 113.402344 C 26.960938 109.78125 28.554688 106.671875 28.71875 106.488281 C 28.882812 106.308594 33.855469 108.742188 39.769531 111.894531 C 45.683594 115.050781 50.738281 117.632812 51 117.632812 C 51.265625 117.632812 53.191406 114.753906 55.28125 111.238281 C 58.375 106.023438 63.664062 98.636719 70.675781 89.730469 C 71.277344 88.964844 69.152344 86.589844 63.734375 81.972656 C 59.4375 78.3125 55.628906 75.320312 55.261719 75.320312 C 54.316406 75.320312 45.117188 86.847656 45.117188 88.03125 C 45.117188 88.574219 46.386719 89.769531 47.9375 90.683594 C 51.039062 92.519531 51.496094 94.222656 49.359375 95.996094 C 48.214844 96.945312 47.105469 96.605469 43.25 94.132812 C 40.660156 92.46875 38.539062 90.835938 38.542969 90.5 C 38.542969 89.375 43.675781 82.269531 49.734375 74.980469 L 55.757812 67.738281 L 58.191406 69.925781 C 59.53125 71.128906 63.699219 74.949219 67.457031 78.417969 C 73.847656 84.316406 76.132812 85.777344 76.132812 83.96875 C 76.132812 83.039062 91.0625 69.957031 96.824219 65.839844 C 99.140625 64.183594 101.179688 62.714844 101.347656 62.570312 C 101.84375 62.167969 90.257812 45.230469 89.5 45.246094 C 89.125 45.253906 85.929688 47.390625 82.402344 49.996094 L 75.984375 54.734375 L 78.5 58.03125 C 80.960938 61.257812 80.976562 61.375 79.28125 63.253906 C 77.546875 65.171875 77.53125 65.164062 73.546875 60.636719 C 71.351562 58.140625 69.554688 55.777344 69.554688 55.386719 C 69.554688 53.867188 91.648438 37.820312 92.472656 38.738281 C 92.660156 38.949219 95.476562 43.351562 98.730469 48.523438 C 101.988281 53.695312 104.9375 58.261719 105.285156 58.675781 C 105.636719 59.089844 110.324219 57.128906 115.699219 54.320312 C 121.074219 51.507812 128.117188 48.210938 131.347656 46.992188 C 134.578125 45.769531 137.21875 44.355469 137.21875 43.84375 C 137.21875 42.539062 131.414062 26.117188 130.628906 25.203125 C 130.125 24.617188 116.039062 29.457031 114.859375 30.621094 C 114.707031 30.773438 115.332031 32.46875 116.25 34.390625 C 117.863281 37.777344 117.859375 37.929688 116.109375 39.210938 C 115.117188 39.9375 114.050781 40.53125 113.742188 40.53125 C 113.230469 40.53125 108.085938 30.710938 108.085938 29.738281 C 108.085938 28.914062 127.652344 20.796875 132.691406 19.53125 C 134.976562 18.960938 135.128906 19.257812 138.625 30.984375 L 142.210938 43.023438 L 149.347656 41.308594 C 156.40625 39.609375 163.554688 38.335938 172.226562 37.226562 L 176.691406 36.652344 L 176.597656 31.304688 C 176.550781 28.363281 176.230469 23.628906 175.894531 20.785156 C 175.371094 16.359375 175.011719 15.636719 173.402344 15.789062 C 172.367188 15.886719 168.613281 16.242188 165.058594 16.582031 L 158.59375 17.199219 L 159.140625 21.8125 C 159.679688 26.375 159.65625 26.425781 157.03125 26.425781 C 154.535156 26.425781 154.3125 26.089844 153.253906 20.691406 C 152.632812 17.539062 152.261719 14.84375 152.425781 14.699219 C 153.125 14.089844 165.5625 12.3125 173.167969 11.730469 L 181.390625 11.105469 L 181.398438 22.761719 C 181.398438 29.171875 181.726562 34.882812 182.105469 35.453125 C 182.511719 36.058594 188.023438 36.75 195.484375 37.128906 C 202.460938 37.484375 210.074219 38.144531 212.398438 38.601562 C 214.726562 39.054688 216.726562 39.328125 216.851562 39.207031 C 217.191406 38.871094 220.859375 20.734375 220.859375 19.386719 C 220.859375 18.621094 218.316406 17.816406 213.769531 17.136719 C 203.941406 15.675781 204.253906 15.589844 203.675781 19.921875 C 203.054688 24.539062 202.765625 24.894531 200.253906 24.097656 C 198.683594 23.601562 198.304688 22.707031 198.316406 19.546875 C 198.316406 17.382812 198.589844 14.628906 198.914062 13.425781 C 199.457031 11.394531 199.832031 11.28125 204.304688 11.839844 C 211.40625 12.726562 226.917969 15.292969 227.289062 15.640625 C 227.464844 15.808594 226.453125 20.929688 225.039062 27.019531 C 223.625 33.109375 222.421875 38.683594 222.367188 39.40625 C 222.300781 40.28125 224.636719 41.347656 229.292969 42.570312 C 233.15625 43.585938 240.464844 46.140625 245.53125 48.246094 C 250.601562 50.347656 254.898438 51.90625 255.078125 51.707031 C 255.707031 51.019531 264.089844 34.195312 264.089844 33.625 C 264.089844 32.890625 259.886719 30.726562 253.765625 28.3125 L 248.914062 26.398438 L 247.40625 30.234375 C 246.0625 33.660156 245.644531 34.003906 243.484375 33.460938 C 242.15625 33.128906 240.964844 32.753906 240.835938 32.625 C 240.710938 32.5 241.492188 29.769531 242.578125 26.558594 C 244.328125 21.371094 244.773438 20.789062 246.566406 21.332031 C 250.460938 22.507812 264.597656 28.496094 268.070312 30.4375 L 271.578125 32.398438 L 267.203125 40.460938 C 264.792969 44.894531 262.074219 49.871094 261.160156 51.515625 L 259.496094 54.503906 L 266.667969 58.980469 C 270.613281 61.441406 277.152344 65.949219 281.199219 69 L 288.558594 74.546875 L 292.617188 69.996094 C 294.851562 67.496094 298.019531 63.910156 299.652344 62.03125 L 302.625 58.613281 L 295.960938 53.15625 L 289.292969 47.699219 L 286.324219 51.148438 C 283.597656 54.3125 283.207031 54.484375 281.546875 53.214844 C 279.949219 51.996094 279.882812 51.5625 280.984375 49.5 C 281.671875 48.214844 283.332031 45.851562 284.675781 44.246094 L 287.113281 41.328125 L 295.101562 47.464844 C 299.496094 50.839844 304.570312 54.867188 306.378906 56.414062 L 309.671875 59.222656 L 305.910156 63.253906 C 303.84375 65.46875 301.925781 67.503906 301.648438 67.777344 C 301.371094 68.046875 299.085938 70.492188 296.578125 73.214844 L 292.011719 78.15625 L 297.714844 84.027344 C 304.121094 90.621094 308.550781 95.875 312.019531 100.992188 C 313.3125 102.898438 314.703125 104.460938 315.109375 104.464844 C 315.515625 104.464844 319.652344 101.910156 324.300781 98.785156 C 329.773438 95.105469 332.519531 92.699219 332.089844 91.96875 C 330.25 88.832031 323.082031 80.023438 322.375 80.023438 C 321.929688 80.023438 320.320312 81.066406 318.804688 82.34375 L 316.050781 84.664062 L 314.066406 82.550781 L 312.082031 80.441406 L 316.789062 76.386719 C 320.648438 73.058594 321.738281 72.535156 322.875 73.480469 C 324.609375 74.917969 333.476562 86.71875 336.75 91.941406 L 339.207031 95.867188 L 334.777344 98.460938 C 332.339844 99.890625 327.527344 102.878906 324.082031 105.109375 L 317.820312 109.15625 L 322.839844 118.800781 C 327.167969 127.113281 329.476562 132.304688 332.027344 139.445312 C 332.539062 140.878906 333.582031 140.707031 342.515625 137.714844 C 347.96875 135.886719 352.429688 134.03125 352.429688 133.589844 C 352.429688 131.5 347.3125 119.292969 346.269531 118.894531 C 345.617188 118.644531 343.734375 119.132812 342.089844 119.984375 C 340.445312 120.835938 338.984375 121.398438 338.84375 121.230469 C 338.703125 121.0625 338.097656 119.984375 337.5 118.832031 C 336.484375 116.878906 336.789062 116.550781 342.117188 113.863281 L 347.816406 110.980469 L 350.488281 116.894531 C 351.957031 120.144531 354.332031 126.125 355.765625 130.179688 C 357.859375 136.089844 358.128906 137.703125 357.125 138.320312 C 356.441406 138.746094 351.085938 140.507812 345.230469 142.234375 C 339.375 143.960938 334.582031 145.847656 334.578125 146.429688 C 334.578125 147.007812 335.40625 150.816406 336.425781 154.890625 C 337.445312 158.964844 338.777344 166.390625 339.382812 171.394531 L 340.488281 180.492188 L 349.042969 180.035156 C 362.914062 179.289062 362.1875 179.738281 361.4375 172.355469 C 360.363281 161.789062 360.371094 161.804688 355.765625 162.4375 C 352.152344 162.933594 351.710938 162.773438 351.195312 160.800781 C 350.882812 159.601562 350.777344 158.464844 350.964844 158.277344 C 351.152344 158.09375 353.773438 157.367188 356.789062 156.664062 C 360.570312 155.785156 362.464844 155.695312 362.886719 156.378906 C 363.429688 157.253906 364.726562 166.691406 366.121094 179.929688 L 366.59375 184.394531 L 361.15625 184.402344 C 358.167969 184.402344 352.230469 184.679688 347.964844 185.011719 L 340.214844 185.617188 L 340.214844 194.199219 C 340.214844 201.105469 339.078125 214.355469 338.050781 219.464844 C 337.898438 220.222656 358.042969 225.074219 358.746094 224.445312 C 359.296875 223.949219 361.496094 207.882812 361.070312 207.457031 C 360.796875 207.1875 358.957031 206.964844 356.972656 206.964844 C 353.597656 206.964844 353.371094 206.789062 353.371094 204.144531 C 353.371094 201.691406 353.707031 201.324219 355.957031 201.332031 C 357.378906 201.34375 360.175781 201.613281 362.171875 201.945312 L 365.804688 202.542969 L 365.15625 209.21875 C 364.457031 216.4375 362.136719 229.535156 361.433594 230.238281 C 361.199219 230.476562 355.699219 229.488281 349.21875 228.042969 C 342.734375 226.601562 337.195312 225.65625 336.90625 225.945312 C 336.613281 226.238281 335.5 229.566406 334.433594 233.347656 C 333.363281 237.128906 330.84375 244.253906 328.832031 249.175781 C 326.820312 254.101562 325.175781 258.257812 325.175781 258.414062 C 325.175781 258.898438 342.714844 267.140625 343.75 267.140625 C 344.65625 267.140625 350.550781 254.285156 350.550781 252.3125 C 350.550781 251.839844 348.859375 250.949219 346.792969 250.328125 C 342.699219 249.101562 342.410156 248.609375 344.269531 246.0625 C 345.460938 244.433594 345.707031 244.433594 350.847656 246.054688 C 353.785156 246.980469 356.191406 248.214844 356.191406 248.792969 C 356.191406 250.773438 346.910156 272.746094 345.320312 274.53125 C 345.152344 274.71875 340.121094 272.265625 334.140625 269.078125 C 328.160156 265.894531 322.914062 263.503906 322.484375 263.769531 C 322.054688 264.035156 320.097656 267.003906 318.132812 270.367188 C 316.167969 273.726562 311.8125 279.953125 308.453125 284.203125 L 302.351562 291.925781 L 304.730469 293.871094 C 306.035156 294.941406 309.667969 298.0625 312.800781 300.804688 L 318.496094 305.789062 L 322.828125 300.332031 C 329.433594 292.011719 329.425781 292.042969 325.640625 289.703125 C 321.886719 287.382812 321.707031 286.824219 324.050781 284.703125 C 325.628906 283.273438 326.070312 283.394531 330.65625 286.484375 C 333.753906 288.570312 335.328125 290.214844 334.910156 290.925781 C 333.304688 293.667969 321.269531 309.292969 319.589844 310.816406 C 317.777344 312.457031 317.503906 312.292969 308.582031 304.007812 L 299.433594 295.515625 L 292.804688 301.679688 C 289.15625 305.070312 283.109375 310.160156 279.359375 312.992188 C 275.613281 315.824219 272.546875 318.308594 272.546875 318.507812 C 272.546875 319.152344 284.027344 335.78125 284.46875 335.78125 C 285.050781 335.78125 292.101562 330.789062 295.574219 327.921875 L 298.390625 325.59375 L 295.617188 322.675781 L 292.839844 319.761719 L 294.828125 317.773438 L 296.816406 315.78125 L 299.953125 319.324219 C 304.84375 324.847656 305.042969 325.476562 302.511719 327.511719 C 298.410156 330.8125 287.148438 339.117188 284.542969 340.761719 L 281.972656 342.386719 L 276.972656 334.617188 C 274.222656 330.34375 271.195312 325.523438 270.246094 323.90625 L 268.515625 320.960938 L 258.078125 326.382812 C 252.339844 329.363281 245.527344 332.554688 242.945312 333.476562 C 240.359375 334.398438 237.84375 335.503906 237.351562 335.9375 C 236.175781 336.96875 242.554688 355.527344 244.082031 355.527344 C 244.710938 355.527344 247.460938 354.636719 250.191406 353.550781 C 252.925781 352.464844 256.085938 351.214844 257.21875 350.777344 C 259.230469 349.992188 259.242188 349.890625 257.75 346.097656 C 256.4375 342.753906 256.414062 342.097656 257.574219 341.363281 C 258.3125 340.894531 259.363281 340.503906 259.898438 340.496094 C 260.914062 340.484375 266.347656 350.757812 265.679688 351.425781 C 264.847656 352.261719 244.40625 360.265625 241.746094 360.796875 L 238.890625 361.371094 L 236.527344 353.511719 C 235.226562 349.191406 233.640625 343.855469 233 341.660156 C 232.359375 339.460938 231.792969 337.664062 231.734375 337.664062 C 231.675781 337.664062 226.988281 338.710938 221.3125 339.996094 C 215.640625 341.277344 207.871094 342.609375 204.054688 342.957031 L 197.109375 343.585938 L 197.59375 353.835938 C 197.863281 359.46875 198.3125 364.3125 198.59375 364.597656 C 198.878906 364.878906 202.785156 364.804688 207.28125 364.429688 L 215.453125 363.75 L 214.910156 359.167969 C 214.425781 355.066406 214.558594 354.585938 216.203125 354.585938 C 217.210938 354.585938 218.355469 354.480469 218.742188 354.351562 C 219.671875 354.042969 221.875 365.230469 221.035156 365.980469 C 220.285156 366.648438 209.097656 368.347656 200.078125 369.164062 L 193.863281 369.722656 L 193.273438 366.152344 Z M 201.597656 339.519531 C 236.464844 335.625 266.390625 321.761719 290.761719 298.207031 C 323.382812 266.675781 339.203125 225.441406 336.289062 179.527344 C 334.058594 144.363281 318.542969 110.121094 293.285156 84.617188 C 253.753906 44.699219 194.429688 30.371094 140.507812 47.714844 C 130.597656 50.902344 112.085938 59.886719 103.855469 65.5 C 84.742188 78.539062 69.566406 94.515625 58.355469 113.398438 C 28.652344 163.433594 30.359375 225.667969 62.761719 274.144531 C 71.023438 286.503906 89.347656 305.070312 101.675781 313.570312 C 130.730469 333.597656 167.980469 343.269531 201.597656 339.519531 Z M 201.597656 339.519531 "/></g><path style=" stroke:none;fill-rule:nonzero;fill:#5170ff;fill-opacity:1;" d="M 182.378906 62.027344 L 182.378906 262.453125 L 262.496094 262.453125 L 262.496094 319.039062 L 115.582031 319.039062 L 115.582031 62.027344 Z M 182.378906 62.027344 "/><path style=" stroke:none;fill-rule:nonzero;fill:#dddac6;fill-opacity:1;" d="M 206.234375 137.335938 C 206.238281 139.039062 206.105469 140.726562 205.832031 142.40625 C 205.554688 144.082031 205.144531 145.726562 204.597656 147.335938 C 204.046875 148.949219 203.371094 150.5 202.566406 152 C 201.757812 153.496094 200.835938 154.917969 199.792969 156.261719 C 198.75 157.605469 197.605469 158.851562 196.355469 160.007812 C 195.105469 161.160156 193.769531 162.203125 192.347656 163.132812 C 190.925781 164.066406 189.433594 164.871094 187.875 165.554688 C 186.320312 166.242188 184.71875 166.792969 183.070312 167.207031 C 181.421875 167.625 179.75 167.90625 178.054688 168.042969 C 176.359375 168.183594 174.664062 168.183594 172.96875 168.039062 C 171.273438 167.898438 169.601562 167.617188 167.957031 167.199219 C 166.308594 166.777344 164.707031 166.226562 163.148438 165.539062 C 161.59375 164.855469 160.105469 164.042969 158.683594 163.113281 C 157.261719 162.179688 155.925781 161.132812 154.679688 159.980469 C 153.429688 158.824219 152.285156 157.574219 151.246094 156.226562 C 150.203125 154.882812 149.28125 153.460938 148.476562 151.964844 C 147.902344 152.929688 147.277344 153.863281 146.601562 154.761719 C 145.925781 155.664062 145.203125 156.523438 144.429688 157.34375 C 143.660156 158.164062 142.847656 158.9375 141.992188 159.667969 C 141.136719 160.398438 140.242188 161.082031 139.3125 161.714844 C 138.382812 162.347656 137.421875 162.929688 136.425781 163.457031 C 135.433594 163.984375 134.414062 164.457031 133.367188 164.871094 C 132.320312 165.289062 131.257812 165.648438 130.171875 165.945312 C 129.085938 166.246094 127.988281 166.484375 126.878906 166.664062 C 125.765625 166.84375 124.648438 166.960938 123.527344 167.019531 C 122.402344 167.074219 121.277344 167.070312 120.15625 167.003906 C 119.03125 166.9375 117.914062 166.8125 116.804688 166.621094 C 115.695312 166.433594 114.601562 166.1875 113.519531 165.878906 C 112.4375 165.570312 111.375 165.203125 110.332031 164.777344 C 109.289062 164.351562 108.273438 163.871094 107.285156 163.335938 C 106.292969 162.800781 105.335938 162.210938 104.410156 161.570312 C 103.488281 160.929688 102.601562 160.242188 101.75 159.503906 C 100.902344 158.765625 100.09375 157.984375 99.328125 157.15625 C 98.566406 156.332031 97.847656 155.464844 97.179688 154.558594 C 96.511719 153.65625 95.894531 152.714844 95.328125 151.742188 C 94.761719 150.769531 94.25 149.769531 93.792969 148.742188 C 93.335938 147.714844 92.9375 146.664062 92.59375 145.589844 C 92.253906 144.519531 91.972656 143.429688 91.75 142.328125 C 91.527344 141.226562 91.363281 140.113281 91.261719 138.992188 C 91.164062 137.871094 91.125 136.75 91.144531 135.625 C 91.167969 134.496094 91.25 133.378906 91.394531 132.261719 C 91.539062 131.144531 91.746094 130.039062 92.011719 128.945312 C 92.277344 127.855469 92.601562 126.777344 92.988281 125.71875 C 93.371094 124.664062 93.8125 123.628906 94.308594 122.617188 C 94.804688 121.609375 95.355469 120.628906 95.960938 119.679688 C 96.5625 118.730469 97.21875 117.816406 97.921875 116.9375 C 98.625 116.0625 99.375 115.222656 100.171875 114.429688 C 100.96875 113.632812 101.804688 112.882812 102.683594 112.179688 C 103.558594 111.476562 104.472656 110.820312 105.425781 110.21875 C 106.375 109.613281 107.351562 109.0625 108.363281 108.566406 C 109.371094 108.070312 110.40625 107.628906 111.464844 107.246094 C 112.523438 106.863281 113.597656 106.539062 114.691406 106.273438 C 115.785156 106.007812 116.890625 105.804688 118.007812 105.660156 C 119.121094 105.511719 120.242188 105.429688 121.367188 105.410156 C 122.492188 105.386719 123.617188 105.425781 124.738281 105.527344 C 125.859375 105.628906 126.96875 105.789062 128.074219 106.011719 C 129.175781 106.238281 130.265625 106.519531 131.335938 106.859375 C 132.40625 107.203125 133.457031 107.601562 134.488281 108.058594 C 135.515625 108.515625 136.515625 109.027344 137.488281 109.59375 C 138.460938 110.160156 139.398438 110.78125 140.304688 111.449219 C 141.207031 112.117188 142.074219 112.835938 142.898438 113.597656 C 143.726562 114.363281 144.507812 115.171875 145.246094 116.019531 C 145.984375 116.871094 146.671875 117.757812 147.3125 118.683594 C 147.953125 119.609375 148.542969 120.566406 149.078125 121.554688 C 149.933594 120.117188 150.898438 118.757812 151.976562 117.476562 C 153.050781 116.199219 154.226562 115.011719 155.496094 113.925781 C 156.765625 112.835938 158.117188 111.859375 159.546875 110.992188 C 160.976562 110.121094 162.46875 109.375 164.019531 108.753906 C 165.570312 108.128906 167.164062 107.632812 168.796875 107.269531 C 170.429688 106.90625 172.082031 106.675781 173.75 106.582031 C 175.421875 106.488281 177.085938 106.53125 178.75 106.707031 C 180.414062 106.886719 182.050781 107.195312 183.664062 107.640625 C 185.277344 108.085938 186.84375 108.660156 188.359375 109.363281 C 189.878906 110.0625 191.332031 110.882812 192.714844 111.820312 C 194.101562 112.761719 195.398438 113.804688 196.613281 114.957031 C 197.828125 116.105469 198.941406 117.347656 199.953125 118.679688 C 200.964844 120.011719 201.859375 121.417969 202.640625 122.898438 C 203.425781 124.375 204.082031 125.910156 204.613281 127.496094 C 205.144531 129.082031 205.542969 130.699219 205.808594 132.351562 C 206.078125 134.003906 206.207031 135.664062 206.203125 137.335938 Z M 206.234375 137.335938 "/><g clip-rule="nonzero" clip-path="url(#41650144fc)"><path style=" stroke:none;fill-rule:nonzero;fill:#151515;fill-opacity:1;" d="M 183.890625 248.503906 L 183.890625 169.292969 C 185.488281 168.816406 187.046875 168.226562 188.558594 167.519531 C 190.070312 166.8125 191.519531 165.996094 192.910156 165.074219 C 194.296875 164.148438 195.609375 163.125 196.84375 162 C 198.082031 160.878906 199.222656 159.671875 200.277344 158.375 C 201.332031 157.082031 202.28125 155.714844 203.128906 154.277344 C 203.976562 152.839844 204.714844 151.347656 205.335938 149.800781 C 205.960938 148.25 206.464844 146.664062 206.847656 145.042969 C 207.234375 143.417969 207.496094 141.773438 207.632812 140.109375 C 207.773438 138.449219 207.785156 136.785156 207.671875 135.117188 C 207.558594 133.453125 207.324219 131.804688 206.964844 130.175781 C 206.601562 128.546875 206.125 126.953125 205.523438 125.394531 C 204.925781 123.839844 204.210938 122.335938 203.386719 120.882812 C 202.558594 119.433594 201.628906 118.054688 200.597656 116.742188 C 199.5625 115.433594 198.4375 114.207031 197.21875 113.066406 C 196.003906 111.925781 194.707031 110.882812 193.332031 109.933594 C 191.957031 108.988281 190.519531 108.148438 189.019531 107.421875 C 188.253906 107.050781 187.554688 106.582031 186.921875 106.015625 C 186.289062 105.449219 185.746094 104.808594 185.292969 104.089844 C 184.839844 103.371094 184.492188 102.601562 184.253906 101.785156 C 184.015625 100.972656 183.894531 100.140625 183.890625 99.289062 L 183.890625 92.984375 C 195.191406 95.429688 200.566406 105.375 201.34375 106.953125 C 201.5625 107.371094 201.816406 107.765625 202.109375 108.136719 C 202.402344 108.503906 202.726562 108.84375 203.085938 109.148438 C 203.441406 109.457031 203.828125 109.726562 204.238281 109.957031 C 204.648438 110.191406 205.078125 110.382812 205.523438 110.53125 C 205.972656 110.683594 206.429688 110.789062 206.894531 110.847656 C 207.363281 110.910156 207.832031 110.925781 208.304688 110.898438 C 208.773438 110.867188 209.238281 110.796875 209.695312 110.675781 C 210.152344 110.558594 210.589844 110.398438 211.015625 110.191406 C 211.441406 109.988281 211.84375 109.746094 212.222656 109.464844 C 212.601562 109.183594 212.949219 108.871094 213.265625 108.519531 C 213.585938 108.171875 213.867188 107.796875 214.109375 107.394531 C 214.355469 106.992188 214.5625 106.570312 214.722656 106.125 C 214.886719 105.683594 215.007812 105.230469 215.082031 104.765625 C 215.160156 104.300781 215.191406 103.832031 215.175781 103.359375 C 215.160156 102.886719 215.101562 102.421875 214.996094 101.960938 C 214.894531 101.503906 214.746094 101.058594 214.554688 100.625 C 210.996094 93.160156 202.175781 82.648438 188.636719 79.054688 C 187.949219 78.863281 187.308594 78.566406 186.722656 78.164062 C 186.132812 77.761719 185.621094 77.273438 185.195312 76.703125 C 184.765625 76.132812 184.4375 75.511719 184.214844 74.832031 C 183.992188 74.15625 183.882812 73.460938 183.890625 72.746094 L 183.890625 59.28125 L 111.59375 59.28125 L 111.59375 73.285156 C 111.59375 73.703125 111.554688 74.117188 111.484375 74.527344 C 111.410156 74.9375 111.304688 75.339844 111.164062 75.730469 C 111.019531 76.125 110.847656 76.5 110.640625 76.863281 C 110.433594 77.226562 110.199219 77.566406 109.933594 77.886719 C 109.667969 78.210938 109.375 78.507812 109.058594 78.777344 C 108.742188 79.050781 108.40625 79.292969 108.046875 79.503906 C 107.6875 79.71875 107.316406 79.898438 106.925781 80.046875 C 106.535156 80.195312 106.136719 80.3125 105.726562 80.390625 C 89.238281 83.65625 79.609375 96.90625 76.320312 105.632812 C 76.148438 106.085938 76.023438 106.546875 75.945312 107.023438 C 75.867188 107.496094 75.835938 107.976562 75.851562 108.457031 C 75.863281 108.9375 75.925781 109.414062 76.035156 109.882812 C 76.144531 110.351562 76.296875 110.804688 76.496094 111.242188 C 76.695312 111.679688 76.933594 112.097656 77.214844 112.488281 C 77.492188 112.878906 77.808594 113.242188 78.160156 113.570312 C 78.511719 113.898438 78.890625 114.191406 79.300781 114.445312 C 79.707031 114.699219 80.136719 114.914062 80.585938 115.082031 C 81.039062 115.253906 81.5 115.378906 81.976562 115.457031 C 82.449219 115.535156 82.929688 115.566406 83.410156 115.550781 C 83.890625 115.535156 84.367188 115.472656 84.835938 115.363281 C 85.304688 115.257812 85.757812 115.101562 86.195312 114.902344 C 86.632812 114.707031 87.050781 114.464844 87.441406 114.1875 C 87.832031 113.90625 88.191406 113.589844 88.523438 113.238281 C 88.851562 112.886719 89.144531 112.507812 89.398438 112.101562 C 89.652344 111.691406 89.863281 111.261719 90.035156 110.8125 C 90.308594 110.074219 96.027344 95.632812 111.605469 94.449219 L 111.605469 104.113281 C 110.015625 104.5625 108.472656 105.125 106.96875 105.804688 C 105.464844 106.484375 104.019531 107.273438 102.628906 108.167969 C 101.242188 109.058594 99.929688 110.050781 98.691406 111.140625 C 97.453125 112.230469 96.300781 113.40625 95.234375 114.667969 C 94.167969 115.929688 93.203125 117.261719 92.335938 118.664062 C 91.46875 120.070312 90.710938 121.53125 90.0625 123.046875 C 89.414062 124.5625 88.878906 126.121094 88.460938 127.71875 C 88.042969 129.3125 87.746094 130.933594 87.566406 132.574219 C 87.390625 134.214844 87.335938 135.859375 87.402344 137.507812 C 87.46875 139.15625 87.65625 140.789062 87.964844 142.410156 C 88.277344 144.03125 88.703125 145.621094 89.25 147.179688 C 89.796875 148.738281 90.457031 150.246094 91.226562 151.703125 C 91.996094 153.164062 92.871094 154.558594 93.847656 155.886719 C 94.828125 157.214844 95.898438 158.464844 97.0625 159.636719 C 98.222656 160.808594 99.46875 161.882812 100.792969 162.871094 C 102.117188 163.855469 103.503906 164.738281 104.960938 165.515625 C 109.207031 167.816406 111.59375 172.519531 111.59375 177.351562 L 111.59375 321.789062 L 263.988281 321.789062 L 263.988281 259.699219 L 195.082031 259.699219 C 194.347656 259.699219 193.621094 259.628906 192.898438 259.484375 C 192.175781 259.34375 191.476562 259.128906 190.796875 258.847656 C 190.117188 258.566406 189.472656 258.222656 188.863281 257.8125 C 188.25 257.40625 187.6875 256.941406 187.164062 256.421875 C 186.644531 255.902344 186.183594 255.335938 185.773438 254.722656 C 185.367188 254.113281 185.019531 253.46875 184.738281 252.789062 C 184.460938 252.109375 184.246094 251.40625 184.105469 250.6875 C 183.960938 249.964844 183.890625 249.238281 183.890625 248.503906 Z M 197.875 122.449219 C 197.390625 122.011719 196.886719 121.601562 196.367188 121.21875 C 195.84375 120.832031 195.304688 120.46875 194.75 120.136719 C 194.191406 119.800781 193.621094 119.492188 193.035156 119.210938 C 192.449219 118.929688 191.851562 118.679688 191.242188 118.453125 C 190.632812 118.230469 190.011719 118.035156 189.386719 117.871094 C 188.757812 117.703125 188.121094 117.570312 187.480469 117.464844 C 186.839844 117.359375 186.195312 117.285156 185.546875 117.238281 C 184.898438 117.195312 184.25 117.183594 183.601562 117.199219 C 182.953125 117.21875 182.304688 117.265625 181.660156 117.347656 C 181.015625 117.425781 180.375 117.535156 179.742188 117.675781 C 179.109375 117.8125 178.480469 117.984375 177.863281 118.183594 C 177.246094 118.382812 176.636719 118.609375 176.042969 118.867188 C 175.445312 119.125 174.863281 119.40625 174.292969 119.71875 C 173.722656 120.03125 173.167969 120.371094 172.632812 120.734375 C 172.09375 121.101562 171.574219 121.488281 171.074219 121.902344 C 170.574219 122.316406 170.09375 122.753906 169.636719 123.214844 C 169.4375 123.410156 169.25 123.621094 169.078125 123.839844 C 168.90625 124.058594 168.75 124.289062 168.605469 124.527344 C 168.464844 124.769531 168.335938 125.015625 168.226562 125.273438 C 168.113281 125.527344 168.019531 125.789062 167.9375 126.058594 C 167.859375 126.328125 167.796875 126.597656 167.753906 126.875 C 167.710938 127.148438 167.683594 127.425781 167.671875 127.707031 C 167.664062 127.984375 167.671875 128.261719 167.699219 128.542969 C 167.722656 128.820312 167.765625 129.09375 167.828125 129.367188 C 167.886719 129.640625 167.964844 129.910156 168.058594 130.171875 C 168.152344 130.433594 168.265625 130.691406 168.390625 130.9375 C 168.515625 131.1875 168.660156 131.429688 168.816406 131.660156 C 168.972656 131.890625 169.144531 132.109375 169.328125 132.320312 C 169.511719 132.527344 169.710938 132.726562 169.917969 132.910156 C 170.128906 133.09375 170.347656 133.265625 170.582031 133.421875 C 170.8125 133.578125 171.050781 133.722656 171.300781 133.847656 C 171.550781 133.976562 171.804688 134.085938 172.066406 134.179688 L 179.167969 136.707031 C 179.679688 136.890625 180.089844 137.207031 180.402344 137.652344 C 180.714844 138.09375 180.871094 138.589844 180.871094 139.132812 C 180.871094 139.675781 180.714844 140.167969 180.402344 140.613281 C 180.089844 141.058594 179.679688 141.371094 179.167969 141.554688 L 172.183594 144.070312 C 171.953125 144.152344 171.730469 144.25 171.515625 144.363281 C 171.296875 144.472656 171.089844 144.597656 170.890625 144.738281 C 170.691406 144.875 170.5 145.027344 170.320312 145.1875 C 170.140625 145.351562 169.972656 145.527344 169.8125 145.710938 C 169.65625 145.894531 169.511719 146.089844 169.378906 146.292969 C 169.246094 146.5 169.125 146.710938 169.023438 146.929688 C 168.917969 147.148438 168.828125 147.375 168.75 147.605469 C 168.675781 147.835938 168.613281 148.070312 168.570312 148.308594 C 168.523438 148.546875 168.496094 148.789062 168.480469 149.03125 C 168.464844 149.273438 168.46875 149.519531 168.484375 149.761719 C 168.503906 150.003906 168.535156 150.242188 168.585938 150.480469 C 168.632812 150.71875 168.699219 150.953125 168.777344 151.183594 C 168.855469 151.414062 168.949219 151.636719 169.058594 151.855469 C 169.167969 152.070312 169.289062 152.28125 169.425781 152.484375 C 169.5625 152.6875 169.707031 152.878906 169.871094 153.058594 C 170.03125 153.242188 170.203125 153.414062 170.382812 153.574219 C 171.222656 154.324219 172.117188 155 173.070312 155.601562 C 174.019531 156.203125 175.011719 156.726562 176.046875 157.164062 C 177.082031 157.605469 178.148438 157.960938 179.238281 158.226562 C 180.332031 158.492188 181.441406 158.667969 182.5625 158.753906 C 183.683594 158.835938 184.804688 158.832031 185.925781 158.734375 C 187.046875 158.636719 188.152344 158.445312 189.242188 158.167969 C 190.332031 157.890625 191.390625 157.523438 192.421875 157.070312 C 193.453125 156.621094 194.4375 156.085938 195.382812 155.472656 C 194.757812 156.21875 194.097656 156.925781 193.402344 157.601562 C 192.703125 158.277344 191.972656 158.914062 191.207031 159.511719 C 190.445312 160.109375 189.652344 160.664062 188.828125 161.179688 C 188.003906 161.695312 187.15625 162.164062 186.285156 162.589844 C 185.414062 163.015625 184.523438 163.394531 183.609375 163.726562 C 182.699219 164.058594 181.769531 164.34375 180.828125 164.578125 C 179.886719 164.8125 178.9375 164.996094 177.976562 165.128906 C 177.015625 165.265625 176.046875 165.347656 175.078125 165.382812 C 174.109375 165.414062 173.140625 165.398438 172.171875 165.328125 C 171.203125 165.257812 170.242188 165.140625 169.285156 164.96875 C 168.332031 164.800781 167.386719 164.582031 166.453125 164.3125 C 165.523438 164.042969 164.605469 163.726562 163.707031 163.363281 C 162.808594 162.996094 161.929688 162.585938 161.074219 162.128906 C 160.21875 161.671875 159.390625 161.171875 158.585938 160.625 C 157.78125 160.082031 157.007812 159.496094 156.269531 158.871094 C 155.527344 158.246094 154.820312 157.582031 154.148438 156.882812 C 151.691406 154.347656 151.230469 150.53125 152.4375 147.21875 C 153.65625 143.953125 154.320312 140.578125 154.421875 137.097656 C 154.523438 133.613281 154.0625 130.207031 153.039062 126.875 C 152.730469 125.871094 152.574219 124.847656 152.570312 123.796875 C 152.566406 122.75 152.71875 121.722656 153.023438 120.71875 C 153.324219 119.714844 153.769531 118.777344 154.351562 117.90625 C 154.9375 117.035156 155.632812 116.269531 156.449219 115.605469 C 157.214844 114.976562 158.011719 114.390625 158.835938 113.84375 C 159.664062 113.300781 160.519531 112.800781 161.402344 112.347656 C 162.28125 111.894531 163.183594 111.492188 164.109375 111.132812 C 165.035156 110.777344 165.972656 110.46875 166.929688 110.214844 C 167.886719 109.957031 168.855469 109.75 169.835938 109.597656 C 170.8125 109.441406 171.796875 109.34375 172.789062 109.292969 C 173.777344 109.242188 174.765625 109.246094 175.753906 109.304688 C 176.746094 109.359375 177.726562 109.46875 178.707031 109.628906 C 179.683594 109.789062 180.648438 110.003906 181.605469 110.265625 C 182.558594 110.53125 183.5 110.84375 184.417969 111.207031 C 185.339844 111.570312 186.242188 111.984375 187.117188 112.441406 C 187.996094 112.902344 188.847656 113.40625 189.671875 113.957031 C 190.496094 114.507812 191.289062 115.097656 192.050781 115.734375 C 192.808594 116.367188 193.535156 117.039062 194.226562 117.753906 C 194.914062 118.464844 195.5625 119.210938 196.175781 119.992188 C 196.785156 120.769531 197.351562 121.582031 197.875 122.421875 Z M 117.09375 94.578125 C 118.972656 94.785156 120.828125 95.136719 122.652344 95.632812 C 123.117188 95.761719 123.589844 95.84375 124.070312 95.882812 C 124.550781 95.917969 125.027344 95.90625 125.503906 95.847656 C 125.984375 95.789062 126.449219 95.683594 126.90625 95.535156 C 127.363281 95.382812 127.804688 95.191406 128.222656 94.953125 C 128.640625 94.714844 129.03125 94.441406 129.398438 94.125 C 129.761719 93.8125 130.09375 93.464844 130.390625 93.085938 C 130.683594 92.707031 130.941406 92.304688 131.160156 91.875 C 131.375 91.441406 131.546875 90.996094 131.675781 90.53125 C 131.804688 90.070312 131.886719 89.597656 131.921875 89.117188 C 131.960938 88.636719 131.949219 88.160156 131.890625 87.679688 C 131.832031 87.203125 131.726562 86.734375 131.574219 86.277344 C 131.425781 85.820312 131.230469 85.382812 130.992188 84.964844 C 130.757812 84.546875 130.480469 84.152344 130.167969 83.789062 C 129.851562 83.425781 129.503906 83.09375 129.125 82.796875 C 128.746094 82.503906 128.34375 82.246094 127.914062 82.027344 C 127.484375 81.8125 127.035156 81.640625 126.574219 81.511719 C 125.402344 81.1875 124.253906 80.914062 123.128906 80.683594 C 122.710938 80.605469 122.300781 80.496094 121.902344 80.347656 C 121.503906 80.199219 121.121094 80.019531 120.753906 79.804688 C 120.386719 79.589844 120.042969 79.347656 119.714844 79.074219 C 119.390625 78.796875 119.09375 78.5 118.820312 78.171875 C 118.546875 77.847656 118.300781 77.5 118.089844 77.132812 C 117.875 76.765625 117.695312 76.382812 117.546875 75.984375 C 117.402344 75.585938 117.289062 75.175781 117.214844 74.757812 C 117.136719 74.339844 117.097656 73.917969 117.09375 73.496094 L 117.09375 71.582031 C 117.09375 71.136719 117.136719 70.695312 117.222656 70.253906 C 117.3125 69.816406 117.441406 69.390625 117.613281 68.976562 C 117.78125 68.566406 117.992188 68.171875 118.242188 67.800781 C 118.488281 67.429688 118.769531 67.085938 119.085938 66.769531 C 119.402344 66.453125 119.746094 66.171875 120.117188 65.921875 C 120.488281 65.675781 120.882812 65.464844 121.296875 65.292969 C 121.707031 65.125 122.132812 64.996094 122.570312 64.90625 C 123.011719 64.820312 123.453125 64.777344 123.898438 64.777344 L 167.796875 64.777344 C 168.492188 64.777344 169.179688 64.84375 169.863281 64.980469 C 170.546875 65.117188 171.210938 65.316406 171.851562 65.582031 C 172.496094 65.851562 173.105469 66.175781 173.683594 66.5625 C 174.261719 66.949219 174.796875 67.390625 175.289062 67.882812 C 175.78125 68.375 176.222656 68.910156 176.609375 69.488281 C 176.996094 70.066406 177.320312 70.675781 177.589844 71.320312 C 177.855469 71.960938 178.054688 72.625 178.191406 73.308594 C 178.328125 73.992188 178.394531 74.679688 178.394531 75.375 L 178.394531 77.773438 C 172.890625 77.863281 167.570312 78.890625 162.425781 80.851562 C 161.976562 81.019531 161.546875 81.230469 161.136719 81.480469 C 160.726562 81.734375 160.34375 82.023438 159.992188 82.351562 C 159.640625 82.679688 159.324219 83.035156 159.039062 83.425781 C 158.757812 83.816406 158.515625 84.230469 158.316406 84.667969 C 158.117188 85.105469 157.960938 85.554688 157.847656 86.023438 C 157.738281 86.492188 157.671875 86.964844 157.652344 87.445312 C 157.636719 87.929688 157.664062 88.40625 157.742188 88.878906 C 157.816406 89.355469 157.9375 89.820312 158.105469 90.269531 C 158.273438 90.722656 158.480469 91.152344 158.734375 91.5625 C 158.984375 91.972656 159.273438 92.351562 159.601562 92.707031 C 159.929688 93.058594 160.289062 93.375 160.675781 93.65625 C 161.066406 93.941406 161.480469 94.183594 161.917969 94.382812 C 162.355469 94.582031 162.804688 94.738281 163.273438 94.851562 C 163.742188 94.964844 164.214844 95.027344 164.695312 95.046875 C 165.179688 95.066406 165.65625 95.035156 166.132812 94.960938 C 166.605469 94.886719 167.070312 94.765625 167.519531 94.597656 C 171.011719 93.246094 174.632812 92.523438 178.378906 92.441406 L 178.378906 104.21875 C 176.988281 103.988281 175.589844 103.847656 174.183594 103.796875 C 172.238281 103.796875 170.3125 103.964844 168.398438 104.308594 C 166.484375 104.648438 164.617188 105.15625 162.796875 105.828125 C 160.972656 106.5 159.222656 107.324219 157.542969 108.304688 C 155.867188 109.285156 154.289062 110.40625 152.808594 111.667969 C 152.484375 111.945312 152.132812 112.191406 151.761719 112.40625 C 151.390625 112.621094 151.003906 112.800781 150.597656 112.941406 C 150.191406 113.085938 149.777344 113.1875 149.355469 113.257812 C 148.929688 113.324219 148.503906 113.351562 148.074219 113.339844 C 147.644531 113.328125 147.222656 113.277344 146.800781 113.1875 C 146.382812 113.097656 145.976562 112.96875 145.578125 112.804688 C 145.183594 112.640625 144.804688 112.441406 144.445312 112.207031 C 144.085938 111.972656 143.75 111.707031 143.4375 111.410156 C 141.917969 110.007812 140.28125 108.757812 138.53125 107.660156 C 136.777344 106.5625 134.9375 105.636719 133.011719 104.886719 C 131.085938 104.132812 129.105469 103.5625 127.074219 103.179688 C 125.039062 102.796875 122.992188 102.601562 120.921875 102.601562 C 119.636719 102.65625 118.363281 102.785156 117.09375 102.992188 Z M 93.625 129.570312 C 93.9375 128.269531 94.339844 126.992188 94.835938 125.75 C 95.332031 124.503906 95.914062 123.300781 96.582031 122.136719 C 97.253906 120.976562 98 119.867188 98.828125 118.816406 C 99.65625 117.761719 100.554688 116.769531 101.523438 115.84375 C 102.492188 114.917969 103.523438 114.070312 104.617188 113.292969 C 105.707031 112.515625 106.851562 111.816406 108.042969 111.203125 C 109.234375 110.589844 110.464844 110.066406 111.730469 109.628906 C 112.996094 109.191406 114.289062 108.847656 115.605469 108.597656 C 116.921875 108.34375 118.25 108.1875 119.589844 108.125 C 120.929688 108.066406 122.265625 108.101562 123.597656 108.230469 C 124.933594 108.363281 126.25 108.585938 127.550781 108.90625 C 128.851562 109.226562 130.125 109.636719 131.367188 110.140625 C 132.609375 110.644531 133.8125 111.230469 134.96875 111.90625 C 136.128906 112.582031 137.230469 113.335938 138.28125 114.167969 C 139.332031 115 140.316406 115.90625 141.238281 116.878906 C 142.15625 117.855469 143.003906 118.890625 143.773438 119.984375 C 143.222656 119.503906 142.644531 119.054688 142.046875 118.636719 C 141.445312 118.214844 140.828125 117.824219 140.1875 117.464844 C 139.550781 117.109375 138.894531 116.785156 138.222656 116.492188 C 137.550781 116.199219 136.867188 115.941406 136.171875 115.71875 C 135.472656 115.496094 134.765625 115.308594 134.050781 115.15625 C 133.335938 115.003906 132.613281 114.890625 131.882812 114.808594 C 131.15625 114.730469 130.425781 114.6875 129.695312 114.683594 C 128.960938 114.679688 128.230469 114.710938 127.503906 114.777344 C 126.773438 114.847656 126.050781 114.953125 125.332031 115.09375 C 124.613281 115.234375 123.902344 115.414062 123.203125 115.625 C 122.503906 115.839844 121.816406 116.085938 121.140625 116.371094 C 120.464844 116.652344 119.804688 116.96875 119.160156 117.316406 C 118.515625 117.667969 117.894531 118.046875 117.289062 118.460938 C 116.683594 118.871094 116.101562 119.3125 115.539062 119.785156 C 114.980469 120.253906 114.445312 120.753906 113.933594 121.277344 C 113.421875 121.804688 112.941406 122.351562 112.484375 122.925781 C 109.96875 126.078125 111.5625 130.828125 115.367188 132.183594 L 131.445312 137.90625 L 115.828125 143.53125 C 112.328125 144.789062 111.136719 149.289062 113.707031 151.980469 C 114.574219 152.894531 115.511719 153.722656 116.519531 154.472656 C 117.527344 155.222656 118.59375 155.882812 119.71875 156.445312 C 120.839844 157.011719 122.003906 157.476562 123.207031 157.84375 C 124.410156 158.207031 125.632812 158.464844 126.882812 158.621094 C 128.128906 158.773438 129.382812 158.816406 130.636719 158.753906 C 131.890625 158.691406 133.132812 158.523438 134.359375 158.246094 C 135.585938 157.96875 136.777344 157.585938 137.9375 157.105469 C 139.097656 156.621094 140.210938 156.042969 141.269531 155.367188 C 140.21875 156.484375 139.082031 157.511719 137.859375 158.445312 C 136.640625 159.378906 135.351562 160.207031 133.996094 160.925781 C 132.636719 161.648438 131.230469 162.253906 129.773438 162.742188 C 128.316406 163.230469 126.832031 163.597656 125.3125 163.84375 C 123.796875 164.085938 122.269531 164.207031 120.734375 164.199219 C 119.195312 164.191406 117.671875 164.0625 116.15625 163.804688 C 114.640625 163.546875 113.160156 163.167969 111.707031 162.664062 C 110.253906 162.164062 108.851562 161.546875 107.5 160.8125 C 106.152344 160.082031 104.867188 159.242188 103.65625 158.300781 C 102.441406 157.355469 101.316406 156.320312 100.273438 155.191406 C 99.230469 154.0625 98.289062 152.855469 97.445312 151.570312 C 96.601562 150.289062 95.867188 148.941406 95.242188 147.539062 C 94.621094 146.132812 94.117188 144.6875 93.734375 143.199219 C 93.347656 141.710938 93.089844 140.203125 92.953125 138.671875 C 92.816406 137.140625 92.804688 135.609375 92.921875 134.078125 C 93.035156 132.546875 93.277344 131.035156 93.640625 129.542969 Z M 241.96875 316.292969 L 128.0625 316.292969 C 127.34375 316.292969 126.628906 316.222656 125.921875 316.082031 C 125.214844 315.941406 124.53125 315.734375 123.863281 315.457031 C 123.199219 315.183594 122.566406 314.84375 121.96875 314.445312 C 121.367188 314.042969 120.8125 313.585938 120.304688 313.078125 C 119.796875 312.570312 119.339844 312.015625 118.941406 311.414062 C 118.539062 310.816406 118.203125 310.183594 117.925781 309.515625 C 117.652344 308.851562 117.445312 308.164062 117.304688 307.457031 C 117.164062 306.75 117.09375 306.039062 117.09375 305.316406 L 117.09375 169.339844 C 118.363281 169.546875 119.636719 169.675781 120.921875 169.730469 C 122.953125 169.726562 124.96875 169.539062 126.964844 169.164062 C 128.964844 168.789062 130.910156 168.238281 132.804688 167.503906 C 134.699219 166.769531 136.511719 165.871094 138.242188 164.804688 C 139.96875 163.734375 141.585938 162.519531 143.089844 161.15625 C 143.359375 160.914062 143.644531 160.699219 143.953125 160.515625 C 144.261719 160.328125 144.582031 160.171875 144.917969 160.046875 C 145.253906 159.921875 145.601562 159.832031 145.957031 159.773438 C 146.308594 159.714844 146.667969 159.6875 147.027344 159.699219 C 147.386719 159.707031 147.738281 159.75 148.089844 159.828125 C 148.441406 159.902344 148.78125 160.011719 149.113281 160.15625 C 149.441406 160.296875 149.757812 160.46875 150.054688 160.667969 C 150.351562 160.871094 150.628906 161.097656 150.882812 161.351562 C 152.417969 162.863281 154.089844 164.214844 155.890625 165.402344 C 157.691406 166.589844 159.59375 167.589844 161.589844 168.410156 C 163.585938 169.226562 165.640625 169.84375 167.757812 170.257812 C 169.875 170.675781 172.011719 170.882812 174.171875 170.886719 C 175.578125 170.835938 176.976562 170.691406 178.367188 170.460938 L 178.367188 265.195312 L 247.03125 265.195312 C 247.785156 265.195312 248.53125 265.269531 249.269531 265.417969 C 250.007812 265.5625 250.726562 265.78125 251.421875 266.070312 C 252.117188 266.359375 252.777344 266.710938 253.40625 267.128906 C 254.03125 267.546875 254.609375 268.023438 255.144531 268.558594 C 255.675781 269.089844 256.152344 269.667969 256.570312 270.296875 C 256.988281 270.921875 257.339844 271.582031 257.628906 272.28125 C 257.917969 272.976562 258.132812 273.691406 258.28125 274.433594 C 258.425781 275.171875 258.5 275.917969 258.5 276.667969 L 258.5 299.757812 C 258.5 300.296875 258.472656 300.839844 258.417969 301.375 C 258.367188 301.914062 258.289062 302.449219 258.183594 302.980469 C 258.078125 303.511719 257.945312 304.039062 257.789062 304.554688 C 257.628906 305.074219 257.449219 305.582031 257.242188 306.082031 C 257.035156 306.582031 256.804688 307.074219 256.546875 307.550781 C 256.292969 308.027344 256.015625 308.492188 255.714844 308.941406 C 255.414062 309.390625 255.089844 309.828125 254.746094 310.246094 C 254.402344 310.664062 254.039062 311.066406 253.65625 311.449219 C 253.273438 311.832031 252.875 312.195312 252.457031 312.539062 C 252.039062 312.882812 251.601562 313.203125 251.152344 313.503906 C 250.703125 313.804688 250.238281 314.082031 249.761719 314.339844 C 249.285156 314.59375 248.796875 314.824219 248.292969 315.03125 C 247.792969 315.242188 247.285156 315.421875 246.765625 315.578125 C 246.25 315.738281 245.722656 315.867188 245.195312 315.976562 C 244.664062 316.082031 244.128906 316.160156 243.589844 316.214844 C 243.050781 316.265625 242.507812 316.292969 241.96875 316.292969 Z M 156.945312 186.375 C 156.945312 194.023438 152.152344 200.226562 146.28125 200.226562 C 140.40625 200.226562 135.613281 194.023438 135.613281 186.375 C 135.613281 178.722656 140.40625 172.515625 146.28125 172.515625 C 152.152344 172.515625 156.945312 178.722656 156.945312 186.375 Z M 156.945312 186.375 "/></g></g></svg>